<?xml version="1.0" encoding="utf-8"?>
<!-- Generator: Adobe Illustrator 19.0.1, SVG Export Plug-In . SVG Version: 6.00 Build 0)  -->
<svg version="1.1" xmlns="http://www.w3.org/2000/svg" xmlns:xlink="http://www.w3.org/1999/xlink" x="0px" y="0px"
	 viewBox="50 50 150 150" enable-background="new 0 0 250 250" xml:space="preserve">

<g id="Background">

</g>
<g id="Icon" fill="rgb(229, 179, 192)">
	<g>
		<path d="M148.6,144c-2.9-1.9-5-4.7-6.3-7.9c-2.7-6.9-9.4-11.8-17.3-11.8c-7.9,0-14.6,4.9-17.3,11.8c-1.3,3.2-3.4,6-6.3,7.9
			c-5.2,3.5-8.5,9.5-8.2,16.3c0.4,9.6,8.1,17.4,17.7,17.9c2.9,0.1,5.6-0.4,8.1-1.4c3.8-1.6,8.2-1.6,12,0c2.5,1,5.2,1.6,8.1,1.4
			c9.5-0.5,17.3-8.3,17.7-17.9C157.1,153.5,153.7,147.4,148.6,144z"/>
		<ellipse cx="105.5" cy="92.8" rx="16.2" ry="21"/>
		<ellipse cx="144.5" cy="92.8" rx="16.2" ry="21"/>
		<ellipse cx="78.7" cy="129.3" rx="16.2" ry="21"/>
		<ellipse cx="171.3" cy="129.3" rx="16.2" ry="21"/>
	</g>
</g>
</svg>
